<svg id="visual" viewBox="0 0 900 600" width="900" height="600" xmlns="http://www.w3.org/2000/svg" xmlns:xlink="http://www.w3.org/1999/xlink" version="1.1"><rect x="0" y="0" width="900" height="600" fill="#0B2545"></rect><path d="M0 349L21.5 353.3C43 357.7 86 366.3 128.8 378.7C171.7 391 214.3 407 257.2 418.7C300 430.3 343 437.7 385.8 438C428.7 438.3 471.3 431.7 514.2 428.7C557 425.7 600 426.3 642.8 422.2C685.7 418 728.3 409 771.2 399.5C814 390 857 380 878.5 375L900 370L900 601L878.5 601C857 601 814 601 771.2 601C728.3 601 685.7 601 642.8 601C600 601 557 601 514.2 601C471.3 601 428.7 601 385.8 601C343 601 300 601 257.2 601C214.3 601 171.7 601 128.8 601C86 601 43 601 21.5 601L0 601Z" fill="#1976a5"></path><path d="M0 430L21.5 434.3C43 438.7 86 447.3 128.8 445C171.7 442.7 214.3 429.3 257.2 425.5C300 421.7 343 427.3 385.8 423.7C428.7 420 471.3 407 514.2 405.3C557 403.7 600 413.3 642.8 420.5C685.7 427.7 728.3 432.3 771.2 441.2C814 450 857 463 878.5 469.5L900 476L900 601L878.5 601C857 601 814 601 771.2 601C728.3 601 685.7 601 642.8 601C600 601 557 601 514.2 601C471.3 601 428.7 601 385.8 601C343 601 300 601 257.2 601C214.3 601 171.7 601 128.8 601C86 601 43 601 21.5 601L0 601Z" fill="#186892"></path><path d="M0 464L21.5 470.8C43 477.7 86 491.3 128.8 491.2C171.7 491 214.3 477 257.2 467.7C300 458.3 343 453.7 385.8 457.7C428.7 461.7 471.3 474.3 514.2 483C557 491.7 600 496.3 642.8 489C685.7 481.7 728.3 462.3 771.2 460C814 457.7 857 472.3 878.5 479.7L900 487L900 601L878.5 601C857 601 814 601 771.2 601C728.3 601 685.7 601 642.8 601C600 601 557 601 514.2 601C471.3 601 428.7 601 385.8 601C343 601 300 601 257.2 601C214.3 601 171.7 601 128.8 601C86 601 43 601 21.5 601L0 601Z" fill="#165a80"></path><path d="M0 529L21.5 522.5C43 516 86 503 128.8 502C171.7 501 214.3 512 257.2 511.7C300 511.3 343 499.7 385.8 502C428.7 504.3 471.3 520.7 514.2 528.2C557 535.7 600 534.3 642.8 534.3C685.7 534.3 728.3 535.7 771.2 531.2C814 526.7 857 516.3 878.5 511.2L900 506L900 601L878.5 601C857 601 814 601 771.2 601C728.3 601 685.7 601 642.8 601C600 601 557 601 514.2 601C471.3 601 428.7 601 385.8 601C343 601 300 601 257.2 601C214.3 601 171.7 601 128.8 601C86 601 43 601 21.5 601L0 601Z" fill="#134c6e"></path><path d="M0 569L21.5 568.8C43 568.7 86 568.3 128.8 563.8C171.7 559.3 214.3 550.7 257.2 546C300 541.3 343 540.7 385.8 539.7C428.7 538.7 471.3 537.3 514.2 536.3C557 535.3 600 534.7 642.8 539C685.7 543.3 728.3 552.7 771.2 553.7C814 554.7 857 547.3 878.5 543.7L900 540L900 601L878.5 601C857 601 814 601 771.2 601C728.3 601 685.7 601 642.8 601C600 601 557 601 514.2 601C471.3 601 428.7 601 385.8 601C343 601 300 601 257.2 601C214.3 601 171.7 601 128.8 601C86 601 43 601 21.5 601L0 601Z" fill="#103f5c"></path></svg>